<svg xmlns="http://www.w3.org/2000/svg" width="100" height="94" viewBox="0 0 100 94" version="1.1"><path d="" stroke="none" fill="#080404" fill-rule="evenodd"/><path d="M 42.803 11.351 C 30.647 14.749, 22.024 25.902, 22.006 38.250 L 22 42 13 42 L 4 42 4 46.500 C 4 50.319, 4.300 51, 5.981 51 C 8.302 51, 8.164 50.503, 11.520 71 C 13.574 83.544, 14.455 86.834, 16.140 88.250 C 18.027 89.836, 21.191 90, 49.936 90 C 81.542 90, 81.659 89.992, 83.734 87.750 C 85.367 85.986, 86.422 81.778, 88.622 68.250 C 91.303 51.765, 91.529 51, 93.714 51 C 95.757 51, 96 50.521, 96 46.500 L 96 42 87.138 42 L 78.275 42 77.621 36.434 C 76.437 26.360, 69.077 16.019, 60.557 12.460 C 55.560 10.371, 47.997 9.899, 42.803 11.351 M 45 20.144 C 37.006 22.486, 31.069 30.187, 31.022 38.272 L 31 42.044 49.750 41.772 L 68.500 41.500 68.173 37 C 67.331 25.398, 55.770 16.988, 45 20.144 M 26 66.500 L 26 79 30 79 L 34 79 34 66.500 L 34 54 30 54 L 26 54 26 66.500 M 46 66.500 L 46 79 50 79 L 54 79 54 66.500 L 54 54 50 54 L 46 54 46 66.500 M 66 66.500 L 66 79 69.500 79 L 73 79 73 66.500 L 73 54 69.500 54 L 66 54 66 66.500" stroke="none" fill="#fff" fill-rule="evenodd"/></svg>