<svg xmlns:xlink="http://www.w3.org/1999/xlink" xmlns="http://www.w3.org/2000/svg" width="24" height="24" viewBox="0 0 24 24" fill="none">
<path fill-rule="evenodd" clip-rule="evenodd" d="M17 3C17 2.44772 16.5523 2 16 2H7.99997C7.44768 2 6.99997 2.44772 6.99997 3V8C6.99997 10.7614 9.23855 13 12 13C14.7614 13 17 10.7614 17 8H20V6H16.9999L17 3ZM12 14C18.0952 14 21.5716 16.3177 21.9957 20.908C22.0499 21.4941 21.5886 22 21 22H2.99996C2.41135 22 1.95005 21.4941 2.0042 20.908C2.42829 16.3177 5.90477 14 12 14ZM12 16C7.41926 16 4.91618 17.3229 4.18835 20H19.8116C19.0838 17.3229 16.5807 16 12 16ZM8.99997 8C8.99997 9.65685 10.3431 11 12 11C13.6568 11 15 9.65685 15 8H8.99997ZM8.99996 4H15L14.9999 6H8.99988L8.99996 4Z" fill="#D86B00"/>
</svg>